<?xml version="1.0" encoding="utf-8"?>
<!-- Generator: Adobe Illustrator 16.0.0, SVG Export Plug-In . SVG Version: 6.00 Build 0)  -->
<!DOCTYPE svg PUBLIC "-//W3C//DTD SVG 1.1//EN" "http://www.w3.org/Graphics/SVG/1.1/DTD/svg11.dtd">
<svg version="1.1" id="Layer_1" xmlns="http://www.w3.org/2000/svg" xmlns:xlink="http://www.w3.org/1999/xlink" x="0px" y="0px"
	 width="30px" height="30px" viewBox="0 0 30 30" enable-background="new 0 0 30 30" xml:space="preserve">
<path fill="#FFFFFF" d="M26.718,23.714V6.295c0-1.656-1.353-3.01-3.009-3.01H6.291c-1.656,0-3.01,1.354-3.01,3.01v17.419
	c0,1.653,1.354,3.001,3.01,3.001H23.71c1.655,0,3.01-1.348,3.01-3.001H26.718z M19.551,6.997c0-0.582,0.477-1.058,1.054-1.058h2.651
	c0.578,0,1.054,0.476,1.054,1.058v2.522c0,0.578-0.476,1.056-1.054,1.056h-2.651c-0.577,0-1.054-0.477-1.054-1.056V6.997z
	 M15.271,10.44c2.599,0,4.708,2.042,4.708,4.563c0,2.519-2.108,4.563-4.708,4.563c-2.6,0-4.708-2.044-4.708-4.563
	C10.563,12.482,12.671,10.44,15.271,10.44z M24.316,23.147c0,0.513-0.413,0.931-0.927,0.931H7.068c-0.512,0-0.932-0.418-0.932-0.931
	v-9.903h2.151c-0.194,0.64-0.3,1.313-0.3,2.014c0,3.895,3.263,7.056,7.284,7.056c4.024,0,7.288-3.161,7.288-7.056
	c0-0.702-0.104-1.374-0.301-2.014h2.059V23.147z"/>
</svg>